<svg width="141" height="141" viewBox="0 0 141 141" fill="none" xmlns="http://www.w3.org/2000/svg">
<g clip-path="url(#clip0_25_4362)">
<path d="M94.1043 90.5621C93.5204 90.3685 93.0341 89.9563 92.7474 89.4119C92.4608 88.8675 92.3961 88.2333 92.5669 87.6423C92.7719 87.0497 93.1868 86.5527 93.7331 86.2451C94.0016 86.1208 94.2898 86.0448 94.5845 86.0205C95.1962 85.9659 95.8048 86.1546 96.2783 86.5458C96.5297 86.7274 96.7406 86.9592 96.8978 87.2265C97.1601 87.7898 97.2051 88.4302 97.0241 89.0247C96.8473 89.6073 96.4497 90.0977 95.9163 90.3912C95.3534 90.6676 94.7089 90.7284 94.1043 90.5621Z" fill="black" fill-opacity="0.2"/>
<path d="M37.1411 72.8956C36.5583 72.7006 36.0736 72.2876 35.7884 71.7432C35.636 71.4778 35.5409 71.1835 35.509 70.8791C35.4772 70.5747 35.5095 70.267 35.6037 69.9758C35.792 69.374 36.2114 68.8714 36.7699 68.5786C37.0341 68.4431 37.3246 68.3665 37.6213 68.3541C38.233 68.2994 38.8416 68.4882 39.315 68.8794C39.5527 69.0575 39.7488 69.285 39.89 69.5463C40.1847 70.1038 40.2462 70.7554 40.0609 71.3582C39.9738 71.6516 39.8263 71.9235 39.6278 72.1565C39.4293 72.3895 39.1843 72.5783 38.9085 72.7109C38.3653 72.9983 37.732 73.0646 37.1411 72.8956Z" fill="black" fill-opacity="0.2"/>
<path d="M73.552 61.5174C73.0374 61.3466 72.5966 61.0052 72.3025 60.5497C72.0084 60.0942 71.8787 59.5519 71.9347 59.0126C72.357 56.1614 73.3442 53.4232 74.8385 50.9586C76.3329 48.4939 78.3042 46.3524 80.637 44.6596C83.6972 42.9439 87.1049 41.9403 90.6066 41.7236C94.1083 41.5069 97.6138 42.0826 100.862 43.4079C101.453 43.5912 101.947 44.0018 102.236 44.5494C102.524 45.097 102.583 45.7367 102.4 46.3277C102.216 46.9188 101.806 47.4128 101.258 47.7011C100.711 47.9895 100.071 48.0485 99.4798 47.8651C96.9069 46.8109 94.134 46.3343 91.3567 46.4692C88.5795 46.6041 85.8658 47.3471 83.4072 48.6458C79.8291 51.2864 77.4439 55.2379 76.7745 59.6342C76.7357 59.9399 76.6367 60.2349 76.4833 60.5022C76.3299 60.7695 76.125 61.0037 75.8806 61.1914C75.6361 61.379 75.3569 61.5164 75.059 61.5956C74.7612 61.6747 74.4506 61.6941 74.1452 61.6526L73.552 61.5174Z" fill="black" fill-opacity="0.2"/>
<path d="M33.9801 94.5864C30.9577 93.6594 28.1512 92.1374 25.7258 90.1097C23.3004 88.0821 21.305 85.5898 19.857 82.7795C16.9301 77.1513 16.3423 70.5954 18.2215 64.5363C20.1007 58.4772 24.295 53.4044 29.8931 50.4201C32.6813 48.9457 35.7348 48.0403 38.876 47.7563C42.0172 47.4724 45.1835 47.8156 48.1909 48.7661C48.782 48.9495 49.276 49.3601 49.5644 49.9076C49.8527 50.4552 49.9117 51.0949 49.7284 51.6859C49.5451 52.277 49.1344 52.771 48.5869 53.0594C48.0393 53.3477 47.3996 53.4067 46.8086 53.2234C43.7726 52.2699 40.5481 52.081 37.4216 52.6737C34.2951 53.2663 31.3634 54.622 28.8869 56.6204C26.4105 58.6187 24.466 61.1978 23.2262 64.1286C21.9864 67.0593 21.4897 70.2509 21.7803 73.4198C22.0709 76.5887 23.1397 79.6367 24.8918 82.2931C26.6438 84.9495 29.0249 87.132 31.8235 88.6467C34.6221 90.1614 37.7515 90.9613 40.9336 90.9755C44.1158 90.9897 47.2521 90.2176 50.0641 88.7279C50.336 88.5832 50.6339 88.4939 50.9406 88.465C51.2473 88.4361 51.5566 88.4682 51.8508 88.5594C52.145 88.6506 52.4183 88.7992 52.6548 88.9966C52.8912 89.194 53.0863 89.4362 53.2287 89.7094C53.5078 90.2526 53.5629 90.8836 53.3819 91.467C53.201 92.0503 52.7986 92.5395 52.261 92.8294C49.4839 94.3234 46.4366 95.2483 43.2976 95.55C40.1586 95.8517 36.9909 95.5241 33.9801 94.5864Z" fill="black" fill-opacity="0.2"/>
<path d="M87.6898 111.244C84.6768 110.313 81.8796 108.791 79.4622 106.766C77.0448 104.741 75.0557 102.254 73.6113 99.4507C73.3322 98.9074 73.2772 98.2764 73.4581 97.6931C73.639 97.1097 74.0414 96.6206 74.579 96.3306C74.851 96.186 75.1489 96.0967 75.4555 96.0677C75.7622 96.0388 76.0716 96.0709 76.3658 96.1622C76.66 96.2534 76.9332 96.402 77.1697 96.5994C77.4062 96.7967 77.6012 97.039 77.7436 97.3121C79.2191 100.132 81.3682 102.543 83.9999 104.332C86.6316 106.121 89.6644 107.232 92.829 107.567C95.9935 107.901 99.1917 107.449 102.139 106.251C105.087 105.052 107.693 103.143 109.726 100.695C111.759 98.2468 113.155 95.3343 113.791 92.2163C114.427 89.0984 114.284 85.8716 113.373 82.8226C112.461 79.7736 110.811 76.9969 108.569 74.7391C106.326 72.4814 103.561 70.8124 100.518 69.8807C99.9272 69.6974 99.4332 69.2868 99.1449 68.7392C98.8565 68.1916 98.7975 67.5519 98.9809 66.9609C99.1642 66.3698 99.5748 65.8758 100.122 65.5875C100.67 65.2991 101.31 65.2401 101.901 65.4235C104.918 66.3415 107.723 67.8502 110.152 69.8618C112.582 71.8734 114.587 74.3478 116.051 77.1411C118.979 82.7778 119.565 89.3415 117.684 95.4079C115.802 101.474 111.605 106.554 106.002 109.545C103.214 111.026 100.159 111.939 97.016 112.231C93.8726 112.522 90.7026 112.187 87.6898 111.244Z" fill="black" fill-opacity="0.2"/>
<path d="M74.9946 100.662L50.2124 92.9756C49.6214 92.7922 49.1273 92.3816 48.839 91.8341C48.5507 91.2865 48.4917 90.6468 48.675 90.0558C48.8686 89.4718 49.2809 88.9855 49.8252 88.6989C50.3696 88.4122 51.0038 88.3475 51.5948 88.5183L76.377 96.2044C76.9609 96.398 77.4472 96.8102 77.7338 97.3545C78.0205 97.8989 78.0852 98.5331 77.9144 99.1241C77.8236 99.4168 77.6761 99.6887 77.4802 99.9244C77.2844 100.16 77.044 100.355 76.7729 100.498C76.5018 100.64 76.2052 100.728 75.9001 100.756C75.5949 100.785 75.2873 100.752 74.9946 100.662Z" fill="black" fill-opacity="0.2"/>
<path d="M100.518 69.8808L46.8086 53.2231C46.2176 53.0398 45.7235 52.6292 45.4352 52.0816C45.1469 51.5341 45.0879 50.8944 45.2712 50.3033C45.4545 49.7123 45.8651 49.2182 46.4127 48.9299C46.9603 48.6416 47.5999 48.5826 48.191 48.7659L102.123 65.4927C102.714 65.676 103.208 66.0866 103.497 66.6341C103.785 67.1817 103.844 67.8214 103.661 68.4125C103.477 69.0035 103.067 69.4976 102.519 69.7859C101.972 70.0742 101.332 70.1332 100.741 69.9499L100.518 69.8808Z" fill="black" fill-opacity="0.2"/>
</g>
<defs>
<clipPath id="clip0_25_4362">
<rect width="112" height="112" fill="white" transform="translate(34) rotate(17.2309)"/>
</clipPath>
</defs>
</svg>
