<svg width="19" height="19" viewBox="0 0 19 19" fill="none" xmlns="http://www.w3.org/2000/svg">
<path d="M7.08019 3.89712C8.15684 1.96571 8.69517 1 9.5 1C10.3048 1 10.8432 1.96571 11.9198 3.89712L12.1984 4.3968C12.5043 4.94564 12.6573 5.22007 12.8958 5.40114C13.1343 5.5822 13.4314 5.64942 14.0255 5.78384L14.5664 5.90622C16.6571 6.37927 17.7025 6.6158 17.9512 7.41557C18.1999 8.21535 17.4872 9.04871 16.0619 10.7154L15.6932 11.1466C15.2881 11.6203 15.0856 11.8571 14.9945 12.1501C14.9034 12.443 14.934 12.759 14.9953 13.3909L15.051 13.9662C15.2665 16.19 15.3742 17.3019 14.7231 17.7962C14.072 18.2905 13.0932 17.8398 11.1357 16.9385L10.6292 16.7053C10.073 16.4492 9.79483 16.3211 9.5 16.3211C9.20517 16.3211 8.92704 16.4492 8.37076 16.7053L7.86432 16.9385C5.90677 17.8398 4.928 18.2905 4.27688 17.7962C3.62575 17.3019 3.7335 16.19 3.94899 13.9662L4.00474 13.3909C4.06597 12.759 4.09659 12.443 4.00548 12.1501C3.91438 11.8571 3.71186 11.6203 3.30683 11.1466L2.93808 10.7154C1.51276 9.04871 0.800101 8.21535 1.04881 7.41557C1.29751 6.6158 2.34288 6.37927 4.43361 5.90622L4.9745 5.78384C5.56862 5.64942 5.86568 5.5822 6.1042 5.40114C6.34272 5.22007 6.4957 4.94565 6.80165 4.3968L7.08019 3.89712Z" fill="white" stroke="white" stroke-width="1.5"/>
</svg>
