<?xml version="1.0" encoding="UTF-8"?>
<!DOCTYPE svg PUBLIC "-//W3C//DTD SVG 1.1//EN" "http://www.w3.org/Graphics/SVG/1.1/DTD/svg11.dtd">
<!-- Creator: CorelDRAW X8 -->
<svg xmlns="http://www.w3.org/2000/svg" xml:space="preserve" width="4.28464in" height="2.95605in" version="1.1" style="shape-rendering:geometricPrecision; text-rendering:geometricPrecision; image-rendering:optimizeQuality; fill-rule:evenodd; clip-rule:evenodd"
viewBox="0 0 4485 3095"
 xmlns:xlink="http://www.w3.org/1999/xlink">
 <defs>
  <style type="text/css">
   <![CDATA[
    .str0 {stroke:#373435;stroke-width:7.27042}
    .fil1 {fill:#FEFEFE}
    .fil0 {fill:black}
    .fil2 {fill:black;fill-rule:nonzero}
   ]]>
  </style>
 </defs>
 <g id="Layer_x0020_1">
  <metadata id="CorelCorpID_0Corel-Layer"/>
  <g id="_2939716874384">
   <circle class="fil0" cx="1600" cy="1426" r="953"/>
   <circle class="fil0" cx="3533" cy="1426" r="953"/>
   <path class="fil1" d="M1598 845l0 0c108,0 197,89 197,197l0 193 193 0c108,0 197,89 197,197l0 0c0,109 -89,198 -197,198l-193 0 0 193c0,108 -89,197 -197,197l0 0c-109,0 -198,-89 -198,-197l0 -193 -193 0c-108,0 -197,-89 -197,-198l0 0c0,-108 89,-197 197,-197l193 0 0 -193c0,-108 89,-197 198,-197z"/>
   <circle class="fil1" cx="3526" cy="1055" r="219"/>
   <circle class="fil1" transform="matrix(4.09916E-14 1.54776 -1.54776 4.09916E-14 3896.48 1424.6)" r="141"/>
   <circle class="fil1" cx="3526" cy="1795" r="219"/>
   <circle class="fil1" transform="matrix(4.09916E-14 1.54776 -1.54776 4.09916E-14 3156.28 1424.6)" r="141"/>
   <circle class="fil0 str0" cx="653" cy="493" r="140"/>
   <circle class="fil0 str0" cx="168" cy="580" r="140"/>
   <circle class="fil0 str0" cx="144" cy="144" r="140"/>
   <path class="fil2" d="M887 2924l0 151c0,2 -1,4 -2,6 -2,2 -4,3 -7,5 -4,1 -8,1 -14,2 -6,1 -13,1 -21,1 -9,0 -16,0 -21,-1 -6,-1 -10,-1 -14,-2 -3,-2 -6,-3 -7,-5 -1,-2 -2,-4 -2,-6l0 -151 -118 -235c-4,-8 -7,-15 -8,-19 -1,-5 -1,-8 2,-11 3,-2 7,-3 14,-4 7,0 16,-1 29,-1 10,0 18,1 24,1 6,0 11,1 14,2 4,2 7,3 8,5 2,2 3,5 5,8l48 106c5,10 10,21 14,32 5,11 9,23 14,36l1 0c4,-12 8,-24 13,-35 4,-12 8,-22 13,-32l47 -106c1,-3 3,-6 4,-8 2,-2 4,-4 8,-5 3,-2 8,-3 13,-3 6,0 14,-1 23,-1 13,0 23,1 30,1 7,1 12,2 14,4 3,3 3,6 2,11 -1,5 -4,11 -8,19l-118 235z"/>
   <path id="1" class="fil2" d="M1425 2865c0,40 -5,74 -15,102 -11,28 -25,51 -45,69 -19,17 -43,30 -70,39 -28,8 -61,12 -99,12l-103 0c-7,0 -13,-2 -18,-6 -5,-5 -8,-12 -8,-21l0 -376c0,-10 3,-17 8,-21 5,-4 11,-7 18,-7l111 0c38,0 71,5 97,14 27,9 50,22 68,40 18,17 32,39 42,65 9,26 14,56 14,90zm-91 3c0,-20 -2,-39 -7,-56 -4,-18 -12,-33 -23,-46 -10,-13 -24,-23 -40,-30 -17,-7 -38,-11 -65,-11l-44 0 0 293 45 0c24,0 44,-3 61,-10 16,-6 30,-15 41,-28 11,-12 19,-28 24,-46 6,-19 8,-41 8,-66z"/>
   <path id="2" class="fil2" d="M1884 2867c0,35 -4,67 -13,96 -9,28 -22,52 -40,71 -17,20 -39,35 -65,45 -26,11 -56,16 -90,16 -33,0 -62,-5 -87,-14 -25,-8 -46,-22 -63,-40 -16,-18 -29,-40 -37,-68 -8,-28 -13,-61 -13,-99 0,-34 5,-66 14,-94 9,-27 22,-51 39,-71 18,-19 40,-34 65,-44 26,-11 56,-16 90,-16 33,0 62,4 87,13 25,8 46,22 62,40 17,18 30,40 38,68 9,27 13,59 13,97zm-92 4c0,-22 -2,-43 -5,-62 -4,-18 -10,-34 -18,-47 -9,-13 -20,-24 -34,-31 -15,-7 -32,-11 -54,-11 -21,0 -39,5 -53,13 -15,8 -26,19 -35,32 -9,14 -15,29 -19,47 -4,19 -6,38 -6,58 0,23 2,45 6,63 3,19 9,35 18,48 8,14 19,24 34,31 14,7 32,10 53,10 22,0 40,-4 54,-12 14,-8 26,-19 35,-32 9,-14 15,-30 19,-48 3,-19 5,-38 5,-59z"/>
   <path id="3" class="fil2" d="M2229 2692c0,7 0,12 -1,17 0,4 -1,8 -2,11 -1,3 -3,5 -4,6 -2,1 -4,2 -6,2l-107 0 0 347c0,2 -1,4 -3,6 -1,2 -3,3 -7,5 -3,1 -8,1 -13,2 -6,1 -13,1 -21,1 -9,0 -16,0 -22,-1 -5,-1 -10,-1 -13,-2 -3,-2 -6,-3 -7,-5 -2,-2 -2,-4 -2,-6l0 -347 -108 0c-2,0 -4,-1 -6,-2 -1,-1 -3,-3 -4,-6 -1,-3 -2,-7 -2,-11 -1,-5 -1,-10 -1,-17 0,-6 0,-12 1,-17 0,-4 1,-8 2,-11 1,-3 3,-5 4,-6 2,-1 4,-2 6,-2l303 0c2,0 4,1 6,2 1,1 3,3 4,6 1,3 2,7 2,11 1,5 1,11 1,17z"/>
   <path id="4" class="fil2" d="M2780 2723c0,7 0,12 -1,17 0,5 -1,8 -2,11 -1,3 -2,5 -4,6 -1,1 -3,2 -5,2 -3,0 -8,-2 -14,-6 -6,-4 -15,-9 -26,-13 -10,-5 -23,-10 -38,-14 -14,-4 -32,-6 -51,-6 -21,0 -40,4 -57,11 -16,7 -31,18 -43,31 -12,13 -21,29 -27,48 -7,18 -10,39 -10,61 0,25 3,46 10,65 6,19 15,35 27,47 12,13 26,23 43,29 16,7 35,10 54,10 10,0 20,-1 29,-4 10,-2 19,-5 27,-10l0 -100 -81 0c-4,0 -7,-3 -10,-8 -2,-5 -3,-13 -3,-25 0,-6 0,-11 1,-16 0,-4 1,-7 2,-10 1,-2 3,-4 4,-5 2,-2 4,-2 6,-2l145 0c4,0 7,0 9,2 3,1 6,3 8,5 2,3 4,5 5,9 1,3 1,7 1,12l0 172c0,6 -1,12 -3,17 -2,5 -7,9 -14,12 -8,3 -17,6 -27,9 -11,3 -22,6 -33,8 -12,2 -23,4 -35,5 -12,1 -23,2 -35,2 -35,0 -65,-5 -93,-15 -27,-10 -50,-24 -69,-43 -19,-19 -33,-42 -43,-69 -10,-27 -15,-57 -15,-92 0,-35 5,-67 16,-95 11,-28 26,-52 45,-71 20,-20 43,-35 71,-45 28,-11 58,-16 92,-16 19,0 36,1 51,4 15,2 29,5 40,9 12,4 21,8 29,12 7,4 13,8 16,11 3,3 5,8 6,13 1,6 2,14 2,25z"/>
   <path id="5" class="fil2" d="M3221 3055c3,7 5,14 5,18 1,5 0,9 -2,11 -3,2 -7,4 -13,4 -6,1 -15,1 -26,1 -11,0 -20,0 -26,0 -7,-1 -11,-1 -15,-2 -3,-1 -5,-3 -7,-5 -1,-1 -2,-4 -3,-6l-28 -87 -163 0 -27 84c-1,3 -2,6 -3,8 -2,2 -4,4 -7,5 -4,1 -8,2 -14,2 -6,1 -14,1 -23,1 -10,0 -18,0 -24,-1 -6,-1 -10,-2 -12,-5 -2,-2 -3,-6 -2,-11 0,-4 2,-10 5,-18l132 -382c2,-4 3,-7 5,-10 2,-2 4,-4 8,-5 4,-1 10,-2 17,-2 6,-1 15,-1 27,-1 13,0 23,0 31,1 8,0 14,1 18,2 5,1 8,3 10,6 1,2 3,5 4,10l133 382zm-197 -317l-1 0 -60 183 121 0 -60 -183z"/>
   <path id="6" class="fil2" d="M3783 3075c0,2 0,4 -1,6 -2,2 -4,3 -7,5 -3,1 -8,1 -13,2 -5,1 -12,1 -20,1 -8,0 -15,0 -20,-1 -6,-1 -10,-1 -13,-2 -3,-2 -5,-3 -7,-5 -1,-2 -2,-4 -2,-6l0 -350 0 0 -125 350c-1,3 -2,5 -4,7 -2,2 -5,3 -8,5 -4,1 -8,1 -13,2 -6,0 -12,0 -20,0 -7,0 -14,0 -19,-1 -5,0 -10,-1 -13,-2 -4,-2 -6,-3 -8,-5 -2,-2 -4,-4 -4,-6l-120 -350 -1 0 0 350c0,2 -1,4 -2,6 -1,2 -3,3 -7,5 -3,1 -7,1 -13,2 -5,1 -12,1 -20,1 -8,0 -15,0 -20,-1 -5,-1 -10,-1 -13,-2 -3,-2 -5,-3 -6,-5 -2,-2 -2,-4 -2,-6l0 -384c0,-11 3,-20 9,-26 6,-6 14,-9 24,-9l57 0c10,0 19,1 26,3 8,2 14,4 20,8 5,4 9,9 13,15 3,7 7,15 9,24l93 257 1 0 96 -256c3,-10 6,-18 10,-24 3,-6 7,-12 12,-16 4,-4 10,-6 16,-8 6,-2 14,-3 22,-3l59 0c6,0 11,1 15,3 5,1 8,3 11,7 3,3 5,6 6,10 2,5 2,10 2,15l0 384z"/>
   <path id="7" class="fil2" d="M4132 3053c0,6 0,12 0,16 -1,4 -2,8 -3,10 -1,3 -2,5 -4,6 -2,2 -4,2 -6,2l-216 0c-7,0 -13,-2 -18,-6 -5,-5 -7,-12 -7,-21l0 -376c0,-10 2,-17 7,-21 5,-4 11,-7 18,-7l215 0c2,0 4,1 6,2 1,1 3,3 4,6 1,3 2,6 2,11 1,4 1,9 1,16 0,6 0,12 -1,16 0,4 -1,8 -2,10 -1,3 -3,5 -4,6 -2,2 -4,2 -6,2l-153 0 0 105 129 0c2,0 4,1 6,2 1,1 3,3 4,6 1,2 2,6 2,10 1,4 1,10 1,16 0,6 0,11 -1,16 0,4 -1,7 -2,10 -1,2 -3,4 -4,5 -2,1 -4,2 -6,2l-129 0 0 121 154 0c3,0 4,1 6,2 2,1 3,3 4,6 1,3 2,6 3,10 0,5 0,10 0,17z"/>
   <path id="8" class="fil2" d="M4459 2958c0,23 -4,42 -13,59 -8,18 -20,32 -34,43 -15,12 -31,20 -51,26 -19,6 -40,9 -62,9 -15,0 -28,-2 -41,-4 -13,-3 -24,-6 -34,-9 -10,-4 -18,-7 -24,-11 -7,-4 -12,-7 -15,-10 -2,-3 -5,-7 -6,-13 -1,-5 -2,-13 -2,-23 0,-7 1,-13 1,-17 1,-5 1,-9 2,-12 1,-3 3,-5 4,-6 2,-1 4,-2 6,-2 3,0 8,2 13,6 6,3 13,8 22,12 9,4 20,9 32,12 12,4 27,6 43,6 11,0 20,-2 29,-4 8,-3 15,-6 21,-11 6,-4 10,-10 14,-17 3,-7 4,-14 4,-23 0,-10 -2,-18 -8,-25 -5,-7 -12,-13 -21,-19 -8,-5 -18,-10 -29,-15 -11,-5 -22,-10 -33,-15 -12,-5 -23,-11 -34,-18 -11,-7 -21,-15 -29,-24 -9,-10 -16,-21 -21,-34 -5,-13 -8,-28 -8,-46 0,-21 4,-39 11,-55 8,-15 18,-28 31,-38 13,-11 29,-18 46,-24 18,-5 37,-7 56,-7 10,0 21,1 31,2 10,2 20,4 28,6 9,3 17,6 24,9 7,4 11,7 14,9 2,2 3,4 4,5 1,2 2,4 2,7 1,2 1,5 1,9 1,4 1,9 1,15 0,6 0,12 -1,16 0,4 -1,8 -1,11 -1,3 -2,5 -4,6 -1,2 -3,2 -6,2 -2,0 -6,-1 -11,-4 -6,-3 -12,-7 -20,-11 -8,-3 -17,-6 -27,-9 -10,-4 -21,-5 -34,-5 -9,0 -17,1 -25,4 -7,2 -13,5 -17,9 -5,4 -9,9 -11,15 -2,6 -3,12 -3,18 0,10 2,18 7,25 6,7 13,13 21,19 9,5 19,10 30,15 11,5 23,10 34,15 12,5 23,11 34,18 11,7 21,15 30,25 9,9 16,20 21,33 5,13 8,28 8,45z"/>
  </g>
 </g>
</svg>
