<svg width="111" height="22" viewBox="0 0 111 22" fill="none" xmlns="http://www.w3.org/2000/svg">
<path d="M7.5 8.1881V6.9941C6.92 6.8801 6.44167 6.59576 6.065 6.1411C5.68833 5.6871 5.5 5.1561 5.5 4.5481C5.5 3.85076 5.74233 3.25976 6.227 2.7751C6.71167 2.29043 7.30267 2.0481 8 2.0481C8.69733 2.0481 9.28833 2.29043 9.773 2.7751C10.2577 3.25976 10.5 3.85076 10.5 4.5481C10.5 5.1561 10.3117 5.6871 9.935 6.1411C9.55767 6.59576 9.07933 6.8801 8.5 6.9941V8.1881L16 12.5191V15.5771L8.808 19.7351C8.55467 19.8798 8.28533 19.9521 8 19.9521C7.71467 19.9521 7.44533 19.8798 7.192 19.7351L0 15.5771V12.5181L7.5 8.1881ZM1 13.4001V14.9981L8 19.0481L15 14.9981V13.4001L8 17.4251L1 13.4001ZM8 6.0481C8.41667 6.0481 8.771 5.90243 9.063 5.6111C9.355 5.31976 9.50067 4.96543 9.5 4.5481C9.5 4.13143 9.35433 3.77743 9.063 3.4861C8.77167 3.19476 8.41733 3.04876 8 3.0481C7.58333 3.0481 7.22933 3.1941 6.938 3.4861C6.64667 3.7781 6.50067 4.1321 6.5 4.5481C6.5 4.96476 6.646 5.3191 6.938 5.6111C7.23 5.9031 7.584 6.04876 8 6.0481ZM1.723 12.6631L8 16.2791L14.258 12.6631L8.5 9.3351V12.5481H7.5V9.3351L1.723 12.6631Z" fill="white"/>
<path d="M29.9416 15.744V12.224L26.3256 5.6C26.1656 5.28 26.3256 5.12 26.6456 5.12H28.2936C28.5816 5.12 28.7096 5.216 28.8696 5.568L31.1736 10.176L33.4616 5.616C33.6216 5.264 33.7656 5.12 34.0376 5.12H35.5416C35.8616 5.12 36.0216 5.28 35.8616 5.6L32.2456 12.224V15.744C32.2456 15.888 32.1336 16 31.9736 16H30.1976C30.0536 16 29.9416 15.888 29.9416 15.744ZM42.1086 15.728C42.1086 15.888 41.9966 16 41.8366 16H40.2046C40.0286 16 39.9326 15.888 39.9326 15.728V15.36C39.4526 15.856 38.8286 16.16 37.9006 16.16C36.2526 16.16 34.9566 15.088 34.9566 12.704C34.9566 10.48 36.1406 9.232 37.9166 9.232C38.6366 9.232 39.3566 9.472 39.9326 9.936V5.376C39.9326 5.232 40.0286 5.12 40.2046 5.12H41.8366C41.9966 5.12 42.1086 5.232 42.1086 5.376V15.728ZM38.5406 11.04C37.7086 11.04 37.2766 11.696 37.2766 12.704C37.2766 13.696 37.7246 14.352 38.5726 14.352C39.0686 14.352 39.5006 14.128 39.9326 13.648V11.712C39.5006 11.264 39.0686 11.04 38.5406 11.04ZM47.1053 16.16C44.8493 16.16 43.3933 14.896 43.3933 12.704C43.3933 10.496 44.8493 9.232 47.1053 9.232C49.3613 9.232 50.8013 10.496 50.8013 12.704C50.8013 14.896 49.3613 16.16 47.1053 16.16ZM47.1053 14.352C47.9693 14.352 48.4973 13.696 48.4973 12.704C48.4973 11.696 47.9693 11.04 47.1053 11.04C46.2253 11.04 45.6973 11.696 45.6973 12.704C45.6973 13.696 46.2253 14.352 47.1053 14.352ZM54.6216 13.568C54.6216 14.128 54.7976 14.368 55.1816 14.368C55.4856 14.368 55.7576 14.272 55.9816 14.16C56.1576 14.064 56.2696 14.096 56.3496 14.288L56.7496 15.408C56.8136 15.568 56.7976 15.648 56.6216 15.744C56.1896 15.984 55.5336 16.16 54.8136 16.16C53.2136 16.16 52.4296 15.408 52.4296 13.728V11.136H51.6776C51.5016 11.136 51.3896 11.04 51.3896 10.896V9.664C51.3896 9.52 51.5016 9.392 51.6776 9.392H52.4296V7.664C52.4296 7.504 52.5416 7.392 52.7176 7.392H54.3496C54.4936 7.392 54.6216 7.504 54.6216 7.664V9.392H56.2216C56.3976 9.392 56.5096 9.52 56.5096 9.664V10.896C56.5096 11.04 56.3976 11.136 56.2216 11.136H54.6216V13.568ZM66.0547 14.176C66.9027 14.176 67.5587 13.856 68.1187 13.296V11.12C68.1187 10.96 68.2147 10.848 68.3747 10.848H70.0227C70.1827 10.848 70.2787 10.96 70.2787 11.12V15.744C70.2787 15.888 70.1827 16 70.0227 16H68.3747C68.2147 16 68.1187 15.888 68.1187 15.744V15.28C67.4307 15.888 66.6307 16.16 65.6387 16.16C62.7747 16.16 60.6627 14.128 60.6627 10.56C60.6627 7.12 62.8227 4.96 66.0547 4.96C67.6387 4.96 68.7747 5.28 69.9107 5.92C70.1187 6.048 70.1187 6.176 70.0547 6.32L69.3827 7.632C69.2867 7.824 69.1747 7.888 68.9987 7.792C67.8467 7.168 67.0787 6.944 66.0547 6.944C64.2627 6.944 63.0947 8.384 63.0947 10.56C63.0947 12.736 64.2627 14.176 66.0547 14.176ZM78.2718 15.168L77.4398 15.952C77.2478 16.144 76.8958 16.208 76.5438 15.952L75.9678 15.488C75.1358 15.984 74.5598 16.128 73.8558 16.128C72.4158 16.128 71.4878 15.376 71.4878 14.048C71.4878 13.04 72.3198 12.144 74.1118 12.144H75.3918V11.968C75.3918 11.36 75.0718 11.088 74.4318 11.088C73.7438 11.088 73.0078 11.328 72.3198 11.616C72.1118 11.696 72.0318 11.632 71.9518 11.424L71.5358 10.384C71.4558 10.176 71.5358 10.048 71.7598 9.952C72.5438 9.568 73.5518 9.232 74.7998 9.232C76.4958 9.232 77.5838 9.872 77.5838 11.904V13.952C77.5838 14.208 77.6158 14.288 77.7758 14.416L78.2398 14.752C78.4158 14.864 78.3998 15.056 78.2718 15.168ZM74.4798 14.688C74.7998 14.688 75.0558 14.608 75.3918 14.4V13.2H74.5758C73.8558 13.2 73.5838 13.472 73.5838 13.952C73.5838 14.4 73.8878 14.688 74.4798 14.688ZM79.4336 15.728V9.664C79.4336 9.504 79.5456 9.392 79.7056 9.392H81.3376C81.5136 9.392 81.6096 9.504 81.6096 9.664V10.064C82.1216 9.552 82.7936 9.232 83.5936 9.232C84.4736 9.232 85.1936 9.568 85.5776 10.256C86.1696 9.632 86.8736 9.232 87.8816 9.232C89.3056 9.232 90.2496 10.064 90.2496 11.776V15.744C90.2496 15.888 90.1536 16 89.9776 16H88.3456C88.1696 16 88.0736 15.904 88.0736 15.76V12.368C88.0736 11.536 87.7536 11.168 87.1296 11.168C86.6656 11.168 86.2976 11.376 85.9296 11.696V15.744C85.9296 15.888 85.8336 16 85.6576 16H84.0256C83.8496 16 83.7536 15.904 83.7536 15.76V12.368C83.7536 11.536 83.4336 11.168 82.8096 11.168C82.3456 11.168 81.9776 11.376 81.6096 11.696V15.728C81.6096 15.888 81.5136 16 81.3376 16H79.7056C79.5456 16 79.4336 15.888 79.4336 15.728ZM98.2562 15.6C97.5522 15.968 96.4962 16.16 95.3762 16.16C92.8642 16.16 91.4402 14.896 91.4402 12.704C91.4402 10.496 92.8642 9.232 95.0082 9.232C96.9442 9.232 98.2242 10.464 98.2242 12.32C98.2242 12.48 98.2242 12.752 98.1922 12.928C98.1602 13.072 98.0642 13.12 97.9042 13.12H93.7282C93.9202 14 94.5762 14.48 95.5842 14.48C96.4802 14.48 97.2002 14.192 97.6642 14.048C97.8722 13.984 97.9682 14.016 98.0482 14.208L98.4002 15.264C98.4482 15.392 98.4482 15.52 98.2562 15.6ZM94.9762 10.864C94.3362 10.864 93.8722 11.328 93.7282 12.048H96.1602C96.0482 11.216 95.6162 10.864 94.9762 10.864ZM102.404 14.592C102.884 14.592 103.14 14.416 103.14 14.096C103.14 13.76 102.9 13.6 101.812 13.392C100.196 13.088 99.4436 12.416 99.4436 11.328C99.4436 10.096 100.532 9.232 102.372 9.232C103.348 9.232 104.5 9.504 105.156 9.856C105.364 9.968 105.348 10.08 105.3 10.24L104.9 11.168C104.82 11.424 104.692 11.488 104.42 11.344C103.956 11.104 103.14 10.8 102.42 10.8C101.988 10.8 101.748 10.96 101.748 11.232C101.748 11.536 102.004 11.68 103.172 11.936C104.724 12.256 105.444 12.784 105.444 13.968C105.444 15.552 104.132 16.16 102.308 16.16C101.252 16.16 100.196 15.936 99.4116 15.552C99.2036 15.44 99.1716 15.328 99.2676 15.088L99.6356 14.176C99.7156 13.952 99.8436 13.92 100.036 14.016C100.82 14.4 101.7 14.592 102.404 14.592Z" fill="white"/>
</svg>
