<svg width="81" height="18" viewBox="0 0 81 18" fill="none" xmlns="http://www.w3.org/2000/svg">
<path d="M7.5 6.14V4.946C6.92 4.832 6.44167 4.54767 6.065 4.093C5.68833 3.639 5.5 3.108 5.5 2.5C5.5 1.80267 5.74233 1.21167 6.227 0.727C6.71167 0.242333 7.30267 0 8 0C8.69733 0 9.28833 0.242333 9.773 0.727C10.2577 1.21167 10.5 1.80267 10.5 2.5C10.5 3.108 10.3117 3.639 9.935 4.093C9.55767 4.54767 9.07933 4.832 8.5 4.946V6.14L16 10.471V13.529L8.808 17.687C8.55467 17.8317 8.28533 17.904 8 17.904C7.71467 17.904 7.44533 17.8317 7.192 17.687L0 13.529V10.47L7.5 6.14ZM1 11.352V12.95L8 17L15 12.95V11.352L8 15.377L1 11.352ZM8 4C8.41667 4 8.771 3.85433 9.063 3.563C9.355 3.27167 9.50067 2.91733 9.5 2.5C9.5 2.08333 9.35433 1.72933 9.063 1.438C8.77167 1.14667 8.41733 1.00067 8 1C7.58333 1 7.22933 1.146 6.938 1.438C6.64667 1.73 6.50067 2.084 6.5 2.5C6.5 2.91667 6.646 3.271 6.938 3.563C7.23 3.855 7.584 4.00067 8 4ZM1.723 10.615L8 14.231L14.258 10.615L8.5 7.287V10.5H7.5V7.287L1.723 10.615Z" fill="black"/>
<path d="M23.9562 13.712V11.072L21.2442 6.10399C21.1242 5.86399 21.2442 5.74399 21.4842 5.74399H22.7202C22.9362 5.74399 23.0322 5.81599 23.1522 6.07999L24.8802 9.53599L26.5962 6.11599C26.7162 5.85199 26.8242 5.74399 27.0282 5.74399H28.1562C28.3962 5.74399 28.5162 5.86399 28.3962 6.10399L25.6842 11.072V13.712C25.6842 13.82 25.6002 13.904 25.4802 13.904H24.1482C24.0402 13.904 23.9562 13.82 23.9562 13.712ZM33.0814 13.7C33.0814 13.82 32.9974 13.904 32.8774 13.904H31.6534C31.5214 13.904 31.4494 13.82 31.4494 13.7V13.424C31.0894 13.796 30.6214 14.024 29.9254 14.024C28.6894 14.024 27.7174 13.22 27.7174 11.432C27.7174 9.76399 28.6054 8.82799 29.9374 8.82799C30.4774 8.82799 31.0174 9.00799 31.4494 9.35599V5.93599C31.4494 5.82799 31.5214 5.74399 31.6534 5.74399H32.8774C32.9974 5.74399 33.0814 5.82799 33.0814 5.93599V13.7ZM30.4054 10.184C29.7814 10.184 29.4574 10.676 29.4574 11.432C29.4574 12.176 29.7934 12.668 30.4294 12.668C30.8014 12.668 31.1254 12.5 31.4494 12.14V10.688C31.1254 10.352 30.8014 10.184 30.4054 10.184ZM36.829 14.024C35.137 14.024 34.045 13.076 34.045 11.432C34.045 9.77599 35.137 8.82799 36.829 8.82799C38.521 8.82799 39.601 9.77599 39.601 11.432C39.601 13.076 38.521 14.024 36.829 14.024ZM36.829 12.668C37.477 12.668 37.873 12.176 37.873 11.432C37.873 10.676 37.477 10.184 36.829 10.184C36.169 10.184 35.773 10.676 35.773 11.432C35.773 12.176 36.169 12.668 36.829 12.668ZM42.4662 12.08C42.4662 12.5 42.5982 12.68 42.8862 12.68C43.1142 12.68 43.3182 12.608 43.4862 12.524C43.6182 12.452 43.7022 12.476 43.7622 12.62L44.0622 13.46C44.1102 13.58 44.0982 13.64 43.9662 13.712C43.6422 13.892 43.1502 14.024 42.6102 14.024C41.4102 14.024 40.8222 13.46 40.8222 12.2V10.256H40.2582C40.1262 10.256 40.0422 10.184 40.0422 10.076V9.15199C40.0422 9.04399 40.1262 8.94799 40.2582 8.94799H40.8222V7.65199C40.8222 7.53199 40.9062 7.44799 41.0382 7.44799H42.2622C42.3702 7.44799 42.4662 7.53199 42.4662 7.65199V8.94799H43.6662C43.7982 8.94799 43.8822 9.04399 43.8822 9.15199V10.076C43.8822 10.184 43.7982 10.256 43.6662 10.256H42.4662V12.08ZM51.041 12.536C51.677 12.536 52.169 12.296 52.589 11.876V10.244C52.589 10.124 52.661 10.04 52.781 10.04H54.017C54.137 10.04 54.209 10.124 54.209 10.244V13.712C54.209 13.82 54.137 13.904 54.017 13.904H52.781C52.661 13.904 52.589 13.82 52.589 13.712V13.364C52.073 13.82 51.473 14.024 50.729 14.024C48.581 14.024 46.997 12.5 46.997 9.82399C46.997 7.24399 48.617 5.62399 51.041 5.62399C52.229 5.62399 53.081 5.86399 53.933 6.34399C54.089 6.43999 54.089 6.53599 54.041 6.64399L53.537 7.62799C53.465 7.77199 53.381 7.81999 53.249 7.74799C52.385 7.27999 51.809 7.11199 51.041 7.11199C49.697 7.11199 48.821 8.19199 48.821 9.82399C48.821 11.456 49.697 12.536 51.041 12.536ZM60.2039 13.28L59.5799 13.868C59.4359 14.012 59.1719 14.06 58.9079 13.868L58.4759 13.52C57.8519 13.892 57.4199 14 56.8919 14C55.8119 14 55.1159 13.436 55.1159 12.44C55.1159 11.684 55.7399 11.012 57.0839 11.012H58.0439V10.88C58.0439 10.424 57.8039 10.22 57.3239 10.22C56.8079 10.22 56.2559 10.4 55.7399 10.616C55.5839 10.676 55.5239 10.628 55.4639 10.472L55.1519 9.69199C55.0919 9.53599 55.1519 9.43999 55.3199 9.36799C55.9079 9.07999 56.6639 8.82799 57.5999 8.82799C58.8719 8.82799 59.6879 9.30799 59.6879 10.832V12.368C59.6879 12.56 59.7119 12.62 59.8319 12.716L60.1799 12.968C60.3119 13.052 60.2999 13.196 60.2039 13.28ZM57.3599 12.92C57.5999 12.92 57.7919 12.86 58.0439 12.704V11.804H57.4319C56.8919 11.804 56.6879 12.008 56.6879 12.368C56.6879 12.704 56.9159 12.92 57.3599 12.92ZM61.0752 13.7V9.15199C61.0752 9.03199 61.1592 8.94799 61.2792 8.94799H62.5032C62.6352 8.94799 62.7072 9.03199 62.7072 9.15199V9.45199C63.0912 9.06799 63.5952 8.82799 64.1952 8.82799C64.8552 8.82799 65.3952 9.07999 65.6832 9.59599C66.1272 9.12799 66.6552 8.82799 67.4112 8.82799C68.4792 8.82799 69.1872 9.45199 69.1872 10.736V13.712C69.1872 13.82 69.1152 13.904 68.9832 13.904H67.7592C67.6272 13.904 67.5552 13.832 67.5552 13.724V11.18C67.5552 10.556 67.3152 10.28 66.8472 10.28C66.4992 10.28 66.2232 10.436 65.9472 10.676V13.712C65.9472 13.82 65.8752 13.904 65.7432 13.904H64.5192C64.3872 13.904 64.3152 13.832 64.3152 13.724V11.18C64.3152 10.556 64.0752 10.28 63.6072 10.28C63.2592 10.28 62.9832 10.436 62.7072 10.676V13.7C62.7072 13.82 62.6352 13.904 62.5032 13.904H61.2792C61.1592 13.904 61.0752 13.82 61.0752 13.7ZM75.1921 13.604C74.6641 13.88 73.8721 14.024 73.0321 14.024C71.1481 14.024 70.0801 13.076 70.0801 11.432C70.0801 9.77599 71.1481 8.82799 72.7561 8.82799C74.2081 8.82799 75.1681 9.75199 75.1681 11.144C75.1681 11.264 75.1681 11.468 75.1441 11.6C75.1201 11.708 75.0481 11.744 74.9281 11.744H71.7961C71.9401 12.404 72.4321 12.764 73.1881 12.764C73.8601 12.764 74.4001 12.548 74.7481 12.44C74.9041 12.392 74.9761 12.416 75.0361 12.56L75.3001 13.352C75.3361 13.448 75.3361 13.544 75.1921 13.604ZM72.7321 10.052C72.2521 10.052 71.9041 10.4 71.7961 10.94H73.6201C73.5361 10.316 73.2121 10.052 72.7321 10.052ZM78.3027 12.848C78.6627 12.848 78.8547 12.716 78.8547 12.476C78.8547 12.224 78.6747 12.104 77.8587 11.948C76.6467 11.72 76.0827 11.216 76.0827 10.4C76.0827 9.47599 76.8987 8.82799 78.2787 8.82799C79.0107 8.82799 79.8747 9.03199 80.3667 9.29599C80.5227 9.37999 80.5107 9.46399 80.4747 9.58399L80.1747 10.28C80.1147 10.472 80.0187 10.52 79.8147 10.412C79.4667 10.232 78.8547 10.004 78.3147 10.004C77.9907 10.004 77.8107 10.124 77.8107 10.328C77.8107 10.556 78.0027 10.664 78.8787 10.856C80.0427 11.096 80.5827 11.492 80.5827 12.38C80.5827 13.568 79.5987 14.024 78.2307 14.024C77.4387 14.024 76.6467 13.856 76.0587 13.568C75.9027 13.484 75.8787 13.4 75.9507 13.22L76.2267 12.536C76.2867 12.368 76.3827 12.344 76.5267 12.416C77.1147 12.704 77.7747 12.848 78.3027 12.848Z" fill="black"/>
</svg>
