<svg width="20" height="20" viewBox="0 0 20 20" fill="none" xmlns="http://www.w3.org/2000/svg">
<path d="M12.7391 2.62644L11.9667 3.39884L4.86565 10.4999C4.38468 10.9808 4.14419 11.2213 3.93737 11.4865C3.6934 11.7993 3.48424 12.1377 3.31358 12.4958C3.1689 12.7994 3.06136 13.122 2.84626 13.7673L1.9348 16.5017L1.712 17.1701C1.60615 17.4876 1.6888 17.8377 1.92549 18.0744C2.16217 18.3111 2.51228 18.3938 2.82983 18.2879L3.49823 18.0651L6.23261 17.1537C6.87789 16.9386 7.20054 16.831 7.50411 16.6863C7.8622 16.5157 8.20064 16.3065 8.51343 16.0625C8.77859 15.8557 9.01907 15.6152 9.50004 15.1343L16.6011 8.03324L17.3735 7.26084C18.6532 5.98108 18.6532 3.90619 17.3735 2.62644C16.0937 1.34669 14.0188 1.34669 12.7391 2.62644Z" stroke="#6868FF" stroke-width="1.5"/>
</svg>
