<svg width="20" height="15" viewBox="0 0 20 15" fill="none" xmlns="http://www.w3.org/2000/svg">
<path d="M17.0802 2.60005C16.3602 1.40005 15.0402 0.800049 13.6002 0.800049H6.40021C4.96021 0.800049 3.64021 1.40005 2.92021 2.60005C0.16021 6.80005 -0.43979 13.16 1.48021 14.48C3.40021 15.8 7.72021 10.04 10.0002 10.04C12.2802 10.04 16.4802 15.8 18.5202 14.48C20.4402 13.16 19.8402 6.80005 17.0802 2.60005ZM7.60021 6.80005H6.40021V8.00005H5.20021V6.80005H4.00021V5.60005H5.20021V4.40005H6.40021V5.60005H7.60021V6.80005ZM14.0802 7.40005C14.0802 8.00005 13.6002 8.48005 13.0002 8.48005C12.4002 8.48005 11.9202 8.00005 11.9202 7.40005C11.9202 6.80005 12.4002 6.32005 13.0002 6.32005C13.6002 6.32005 14.0802 6.80005 14.0802 7.40005ZM16.3602 5.00005C16.3602 5.60005 15.8802 6.08005 15.2802 6.08005C14.6802 6.08005 14.2002 5.60005 14.2002 5.00005C14.2002 4.40005 14.6802 3.92005 15.2802 3.92005C15.8802 3.92005 16.3602 4.40005 16.3602 5.00005Z" fill="#9CA3AF"/>
</svg>
