<svg width="20" height="20" viewBox="0 0 20 20" fill="none" xmlns="http://www.w3.org/2000/svg">
<path d="M19.3762 3.52418C18.5386 1.8052 16.1258 0.398762 13.3191 1.21762C11.978 1.60501 10.8079 2.43577 9.99996 3.57418C9.19203 2.43577 8.02191 1.60501 6.68077 1.21762C3.8679 0.411264 1.46133 1.8052 0.623718 3.52418C-0.551438 5.93074 -0.0638732 8.63735 2.07391 11.569C3.74913 13.863 6.1432 16.1884 9.61866 18.8887C9.72849 18.9744 9.86379 19.0209 10.0031 19.0209C10.1424 19.0209 10.2777 18.9744 10.3875 18.8887C13.8567 16.1946 16.257 13.888 17.9323 11.569C20.0638 8.63735 20.5514 5.93074 19.3762 3.52418Z" fill="#9CA3AF"/>
</svg>
