<svg width="14" height="14" viewBox="0 0 14 14" fill="none" xmlns="http://www.w3.org/2000/svg">
<path fill-rule="evenodd" clip-rule="evenodd" d="M0.538462 0C0.241077 0 0 0.241078 0 0.538462V4.84615C0 5.14354 0.241078 5.38462 0.538462 5.38462H4.84615C5.14354 5.38462 5.38462 5.14354 5.38462 4.84615V0.538462C5.38462 0.241077 5.14354 0 4.84615 0H0.538462ZM9.15385 0C8.85646 0 8.61539 0.241078 8.61539 0.538462V4.84615C8.61539 5.14354 8.85646 5.38462 9.15385 5.38462H13.4615C13.7589 5.38462 14 5.14354 14 4.84615V0.538462C14 0.241077 13.7589 0 13.4615 0H9.15385ZM0 9.15385C0 8.85646 0.241077 8.61539 0.538462 8.61539H4.84615C5.14354 8.61539 5.38462 8.85646 5.38462 9.15385V13.4615C5.38462 13.7589 5.14354 14 4.84615 14H0.538462C0.241078 14 0 13.7589 0 13.4615V9.15385ZM9.15385 8.61539C8.85646 8.61539 8.61539 8.85646 8.61539 9.15385V13.4615C8.61539 13.7589 8.85646 14 9.15385 14H13.4615C13.7589 14 14 13.7589 14 13.4615V9.15385C14 8.85646 13.7589 8.61539 13.4615 8.61539H9.15385Z" fill="#778090"/>
</svg>
