<svg width="20" height="21" viewBox="0 0 20 21" fill="none" xmlns="http://www.w3.org/2000/svg">
<path d="M11.5788 1.08268C11.1381 0.70803 10.5785 0.502319 10 0.502319C9.4216 0.502319 8.86201 0.70803 8.4213 1.08268L1.1088 7.29793C0.839638 7.52674 0.623433 7.81133 0.475154 8.13197C0.326875 8.45262 0.250066 8.80166 0.250046 9.15493V18.8749C0.250046 19.3722 0.44759 19.8491 0.799221 20.2008C1.15085 20.5524 1.62776 20.7499 2.12505 20.7499H5.87505C6.37233 20.7499 6.84924 20.5524 7.20087 20.2008C7.5525 19.8491 7.75005 19.3722 7.75005 18.8749V13.6249C7.75005 13.5255 7.78956 13.4301 7.85988 13.3598C7.93021 13.2894 8.02559 13.2499 8.12505 13.2499H11.5C11.5995 13.2499 11.6949 13.2894 11.7652 13.3598C11.8355 13.4301 11.875 13.5255 11.875 13.6249V18.8749C11.875 19.3722 12.0726 19.8491 12.4242 20.2008C12.7759 20.5524 13.2528 20.7499 13.75 20.7499H17.875C18.3723 20.7499 18.8492 20.5524 19.2009 20.2008C19.5525 19.8491 19.75 19.3722 19.75 18.8749V9.15493C19.75 8.80166 19.6732 8.45262 19.5249 8.13197C19.3767 7.81133 19.1605 7.52674 18.8913 7.29793L11.5788 1.08268Z" fill="#9CA3AF"/>
</svg>
