<svg width="51" height="51" viewBox="0 0 51 51" fill="none" xmlns="http://www.w3.org/2000/svg">
<g clip-path="url(#clip0_25_3343)">
<path d="M28.0518 36.883L14.7305 29.4151C12.8059 28.2271 11.4147 26.3413 10.8476 24.1518C10.2806 21.9622 10.5815 19.6383 11.6875 17.6653C12.7935 15.6924 14.6191 14.2232 16.7828 13.5645C18.9466 12.9059 21.2812 13.1088 23.2989 14.1308L36.6202 21.5987C38.5448 22.7867 39.936 24.6725 40.5031 26.862C41.0701 29.0516 40.7692 31.3755 39.6632 33.3485C38.5572 35.3214 36.7316 36.7906 34.5679 37.4493C32.4041 38.1079 30.0695 37.905 28.0518 36.883ZM22.5399 15.4846C20.8806 14.653 18.9646 14.4927 17.1901 15.0371C15.4156 15.5814 13.9191 16.7885 13.0114 18.4075C12.1038 20.0266 11.8549 21.9331 12.3163 23.7309C12.7778 25.5287 13.9142 27.0796 15.4895 28.0613L28.8108 35.5292C30.4701 36.3608 32.3861 36.5211 34.1606 35.9768C35.9351 35.4324 37.4316 34.2253 38.3393 32.6063C39.2469 30.9872 39.4958 29.0807 39.0344 27.2829C38.5729 25.4851 37.4365 23.9342 35.8612 22.9525L22.5399 15.4846Z" fill="#FFC02D"/>
<path d="M16.8814 24.3404C16.7018 24.2397 16.5696 24.0719 16.5139 23.8738C16.4581 23.6757 16.4833 23.4635 16.5839 23.284L19.0505 18.8842C19.1511 18.7046 19.3189 18.5725 19.517 18.5167C19.7152 18.4609 19.9273 18.4861 20.1068 18.5867C20.2864 18.6874 20.4185 18.8552 20.4743 19.0533C20.5301 19.2514 20.5049 19.4636 20.4043 19.6431L17.9377 24.0429C17.8371 24.2224 17.6693 24.3546 17.4711 24.4104C17.273 24.4662 17.0609 24.441 16.8814 24.3404Z" fill="#FFC02D"/>
<path d="M20.3117 23.3631L15.9119 20.8966C15.7323 20.7959 15.6001 20.6281 15.5444 20.43C15.4886 20.2319 15.5138 20.0197 15.6144 19.8402C15.7179 19.6637 15.8858 19.5342 16.0827 19.4787C16.2796 19.4233 16.4904 19.4462 16.6708 19.5428L21.0706 22.0093C21.2401 22.1225 21.3582 22.2979 21.3994 22.4974C21.4407 22.697 21.4018 22.9048 21.2911 23.0759C21.1902 23.2342 21.0353 23.3504 20.8553 23.4032C20.6752 23.456 20.4821 23.4418 20.3117 23.3631Z" fill="#FFC02D"/>
<path d="M31.2434 32.4275C31.0669 32.324 30.9374 32.1562 30.8819 31.9592C30.8265 31.7623 30.8494 31.5515 30.946 31.3711L33.4125 26.9713C33.5132 26.7918 33.681 26.6596 33.8791 26.6038C34.0772 26.5481 34.2894 26.5733 34.4689 26.6739C34.6484 26.7745 34.7806 26.9424 34.8364 27.1405C34.8922 27.3386 34.867 27.5507 34.7663 27.7303L32.2998 32.1301C32.1991 32.3096 32.0313 32.4418 31.8332 32.4976C31.6351 32.5534 31.4229 32.5282 31.2434 32.4275Z" fill="#FFC02D"/>
<path d="M34.6872 31.4576L30.2873 28.9911C30.1078 28.8904 29.9756 28.7226 29.9199 28.5245C29.8641 28.3264 29.8893 28.1142 29.9899 27.9347C30.0906 27.7552 30.2584 27.623 30.4565 27.5672C30.6546 27.5114 30.8668 27.5366 31.0463 27.6373L35.4461 30.1038C35.6226 30.2073 35.7522 30.3751 35.8076 30.5721C35.8631 30.769 35.8401 30.9798 35.7435 31.1602C35.6429 31.3397 35.4751 31.4719 35.2769 31.5277C35.0788 31.5834 34.8667 31.5582 34.6872 31.4576Z" fill="#FFC02D"/>
</g>
<defs>
<clipPath id="clip0_25_3343">
<rect width="37.2482" height="37.2482" fill="white" transform="translate(18.2144) rotate(29.2749)"/>
</clipPath>
</defs>
</svg>
