<svg width="64" height="64" viewBox="0 0 64 64" fill="none" xmlns="http://www.w3.org/2000/svg">
<g clip-path="url(#clip0_25_3358)">
<path d="M27.0808 29.0137L19.0011 22.1585C18.8987 22.0816 18.8131 21.9847 18.7496 21.8735C18.6861 21.7623 18.646 21.6394 18.6318 21.5121C18.6177 21.3849 18.6297 21.2561 18.6672 21.1337C18.7047 21.0113 18.7669 20.8978 18.8499 20.8004L25.4988 12.9638C25.6597 12.7742 25.8893 12.6562 26.1372 12.6359C26.3851 12.6156 26.6309 12.6945 26.8205 12.8554L34.9431 19.7471C35.1327 19.908 35.2507 20.1376 35.271 20.3855C35.2913 20.6333 35.2123 20.8791 35.0514 21.0687L28.4025 28.9053C28.2416 29.0949 28.0119 29.2129 27.7641 29.2332C27.5162 29.2535 27.2704 29.1746 27.0808 29.0137ZM20.8865 21.2987L27.5791 26.977L33.039 20.5418L26.3465 14.8635L20.8865 21.2987Z" fill="url(#paint0_linear_25_3358)"/>
<path d="M35.1462 35.8567L27.0808 29.0137C26.8911 28.8528 26.7732 28.6231 26.7529 28.3753C26.7325 28.1274 26.8115 27.8816 26.9724 27.692L33.6214 19.8554C33.7823 19.6658 34.0119 19.5478 34.2598 19.5275C34.5076 19.5072 34.7534 19.5861 34.943 19.747L43.0084 26.5901C43.1981 26.751 43.316 26.9807 43.3363 27.2285C43.3567 27.4764 43.2777 27.7222 43.1168 27.9118L36.4678 35.7484C36.3069 35.938 36.0773 36.056 35.8294 36.0763C35.5816 36.0966 35.3358 36.0176 35.1462 35.8567ZM29.0091 28.1903L35.6445 33.8201L41.1044 27.3849L34.469 21.7551L29.0091 28.1903Z" fill="url(#paint1_linear_25_3358)"/>
<path d="M43.2261 42.7121L35.1464 35.8569C34.9568 35.696 34.8389 35.4664 34.8185 35.2185C34.7982 34.9707 34.8772 34.7249 35.0381 34.5352L41.687 26.6987C41.8479 26.509 42.0776 26.3911 42.3254 26.3708C42.5733 26.3504 42.8191 26.4294 43.0087 26.5903L51.0884 33.4455C51.278 33.6064 51.396 33.8361 51.4163 34.0839C51.4366 34.3318 51.3577 34.5776 51.1968 34.7672L44.5478 42.6038C44.3869 42.7934 44.1573 42.9114 43.9094 42.9317C43.6616 42.952 43.4158 42.873 43.2261 42.7121ZM37.0748 35.0335L43.7673 40.7118L49.2272 34.2767L42.5347 28.5984L37.0748 35.0335Z" fill="url(#paint2_linear_25_3358)"/>
<path d="M28.4732 43.7218L20.4078 36.8787C20.2182 36.7178 20.1002 36.4881 20.0799 36.2403C20.0596 35.9924 20.1386 35.7466 20.2995 35.557L26.9727 27.6918C27.1336 27.5022 27.3632 27.3842 27.6111 27.3639C27.8589 27.3436 28.1047 27.4226 28.2944 27.5835L36.3597 34.4266C36.5494 34.5874 36.6673 34.8171 36.6877 35.0649C36.708 35.3128 36.629 35.5586 36.4681 35.7482L29.8192 43.5848C29.7413 43.6844 29.6442 43.7671 29.5335 43.8282C29.4229 43.8893 29.3011 43.9273 29.1754 43.9401C29.0497 43.9529 28.9227 43.9402 28.802 43.9026C28.6813 43.8651 28.5695 43.8036 28.4732 43.7218ZM22.3362 36.0553L28.9715 41.6851L34.4314 35.2499L27.7961 29.6202L22.3362 36.0553Z" fill="url(#paint3_linear_25_3358)"/>
</g>
<defs>
<linearGradient id="paint0_linear_25_3358" x1="30.8818" y1="16.3012" x2="23.0184" y2="25.5691" gradientUnits="userSpaceOnUse">
<stop stop-color="#6868FF"/>
<stop offset="0.95" stop-color="#A7A7B6" stop-opacity="0"/>
</linearGradient>
<linearGradient id="paint1_linear_25_3358" x1="38.9757" y1="23.1686" x2="31.1135" y2="32.4352" gradientUnits="userSpaceOnUse">
<stop stop-color="#6868FF"/>
<stop offset="0.95" stop-color="#A7A7B6" stop-opacity="0"/>
</linearGradient>
<linearGradient id="paint2_linear_25_3358" x1="47.0486" y1="30.0179" x2="39.1863" y2="39.2845" gradientUnits="userSpaceOnUse">
<stop stop-color="#6868FF"/>
<stop offset="0.95" stop-color="#A7A7B6" stop-opacity="0"/>
</linearGradient>
<linearGradient id="paint3_linear_25_3358" x1="32.3273" y1="31.0052" x2="24.4408" y2="40.3005" gradientUnits="userSpaceOnUse">
<stop stop-color="#6868FF"/>
<stop offset="0.95" stop-color="#A7A7B6" stop-opacity="0"/>
</linearGradient>
<clipPath id="clip0_25_3358">
<rect width="45.0096" height="45.0096" fill="white" transform="translate(29.1196) rotate(40.313)"/>
</clipPath>
</defs>
</svg>
