<svg width="46" height="46" viewBox="0 0 46 46" fill="none" xmlns="http://www.w3.org/2000/svg">
<g clip-path="url(#clip0_25_3363)">
<path d="M31.5068 30.4137C31.4146 30.4467 31.3165 30.4596 31.2189 30.4514C31.1214 30.4433 31.0267 30.4144 30.9413 30.3666C30.8529 30.3306 30.7732 30.2761 30.7075 30.2069C30.64 30.1394 30.5874 30.0585 30.553 29.9695C30.5186 29.8805 30.5031 29.7853 30.5076 29.69C30.5096 29.5946 30.5319 29.5006 30.5731 29.4145C30.6539 29.239 30.8 29.1018 30.9802 29.0321C31.1605 28.9624 31.3608 28.9656 31.5388 29.041C31.7113 29.1212 31.8457 29.2656 31.9133 29.4434C31.9606 29.5235 31.9944 29.6108 32.0133 29.7019C32.0056 29.7965 31.9835 29.8894 31.9478 29.9773C31.9118 30.0786 31.8535 30.1703 31.7771 30.2459C31.7008 30.3215 31.6084 30.3788 31.5068 30.4137Z" fill="#F2AA00"/>
<path d="M29.7971 25.9933C29.7083 26.0289 29.6131 26.0455 29.5175 26.0421C29.4219 26.0386 29.3281 26.0152 29.2421 25.9734C29.1535 25.9375 29.0731 25.8838 29.006 25.8156C28.9389 25.7475 28.8864 25.6663 28.8519 25.577C28.8174 25.4878 28.8016 25.3925 28.8054 25.2969C28.8091 25.2013 28.8325 25.1075 28.8739 25.0213C28.9047 24.9302 28.96 24.8493 29.0337 24.7875C29.1397 24.688 29.2725 24.6217 29.4157 24.5969C29.5589 24.5721 29.7063 24.5898 29.8396 24.6478C30.008 24.7336 30.1406 24.8761 30.2142 25.0502C30.2839 25.2272 30.2816 25.4245 30.2079 25.5999C30.17 25.6901 30.114 25.7715 30.0433 25.8392C29.9727 25.9069 29.8889 25.9593 29.7971 25.9933Z" fill="#F2AA00"/>
<path d="M32.7281 35.1484L18.5554 40.6299C18.375 40.6997 18.1743 40.6949 17.9974 40.6167C17.8206 40.5385 17.682 40.3932 17.6123 40.2129L7.09115 13.0099C7.02139 12.8295 7.02614 12.6288 7.10435 12.452C7.18256 12.2751 7.32783 12.1366 7.5082 12.0668L26.7135 4.63891C26.8939 4.56915 27.0945 4.5739 27.2714 4.65211C27.4483 4.73032 27.5868 4.87559 27.6566 5.05596L36.226 27.2128C36.8125 28.7291 36.7736 30.4161 36.1178 31.9038C35.4621 33.3915 34.243 34.5584 32.7281 35.1484ZM18.7094 39.0067L32.202 33.7883C33.3562 33.3377 34.2848 32.448 34.7841 31.314C35.2834 30.1801 35.3128 28.8944 34.8659 27.7388L26.5595 6.26209L8.71433 13.1639L18.7094 39.0067Z" fill="#F2AA00"/>
<path d="M23.5091 33.5069C23.3284 33.5727 23.1293 33.5661 22.9535 33.4883C22.7777 33.4106 22.6388 33.2677 22.566 33.0898L20.8563 28.6693C20.7865 28.489 20.7913 28.2883 20.8695 28.1114C20.9477 27.9345 21.093 27.796 21.2733 27.7262C21.4537 27.6565 21.6544 27.6612 21.8313 27.7394C22.0081 27.8176 22.1467 27.9629 22.2164 28.1433L23.9261 32.5638C23.9959 32.7441 23.9911 32.9448 23.9129 33.1217C23.8347 33.2985 23.6894 33.4371 23.5091 33.5069Z" fill="#F2AA00"/>
<path d="M24.8688 30.4326L20.4483 32.1423C20.2679 32.212 20.0673 32.2073 19.8904 32.1291C19.7135 32.0509 19.575 31.9056 19.5052 31.7252C19.4355 31.5449 19.4402 31.3442 19.5184 31.1673C19.5966 30.9904 19.7419 30.8519 19.9223 30.7821L24.3427 29.0725C24.5231 29.0027 24.7238 29.0074 24.9007 29.0857C25.0775 29.1639 25.2161 29.3091 25.2858 29.4895C25.3556 29.6699 25.3509 29.8706 25.2726 30.0474C25.1944 30.2243 25.0492 30.3628 24.8688 30.4326Z" fill="#F2AA00"/>
<path d="M28.6853 21.1383L17.1785 25.5888C16.9981 25.6585 16.7974 25.6538 16.6206 25.5756C16.4437 25.4974 16.3051 25.3521 16.2354 25.1717L12.3636 15.161C12.2939 14.9807 12.2986 14.78 12.3768 14.6031C12.455 14.4262 12.6003 14.2877 12.7807 14.2179L24.2875 9.7675C24.4679 9.69775 24.6686 9.70249 24.8454 9.78071C25.0223 9.85892 25.1609 10.0042 25.2306 10.1846L29.0813 20.1408C29.1251 20.2317 29.1496 20.3307 29.1532 20.4315C29.1568 20.5323 29.1394 20.6327 29.1022 20.7265C29.065 20.8202 29.0087 20.9052 28.937 20.9761C28.8652 21.047 28.7795 21.1023 28.6853 21.1383ZM17.2781 23.9866L27.4248 20.0623L24.0791 11.4117L13.9868 15.3151L17.2781 23.9866Z" fill="#F2AA00"/>
</g>
<defs>
<clipPath id="clip0_25_3363">
<rect width="35" height="35" fill="white" transform="translate(0 12.6252) rotate(-21.1446)"/>
</clipPath>
</defs>
</svg>
