<svg width="93" height="93" viewBox="0 0 93 93" fill="none" xmlns="http://www.w3.org/2000/svg">
<path d="M46.5 83.3125C39.2192 83.3125 32.1019 81.1535 26.0481 77.1085C19.9943 73.0635 15.276 67.3142 12.4897 60.5875C9.70345 53.8609 8.97444 46.4592 10.3949 39.3183C11.8153 32.1773 15.3213 25.618 20.4696 20.4696C25.618 15.3213 32.1773 11.8153 39.3183 10.3949C46.4592 8.97444 53.8609 9.70345 60.5875 12.4897C67.3142 15.276 73.0635 19.9943 77.1085 26.0481C81.1535 32.1019 83.3125 39.2192 83.3125 46.5C83.3023 56.2601 79.4205 65.6176 72.5191 72.5191C65.6176 79.4205 56.2601 83.3023 46.5 83.3125ZM46.5 13.5625C39.9856 13.5625 33.6175 15.4943 28.2009 19.1135C22.7844 22.7327 18.5627 27.8768 16.0697 33.8954C13.5768 39.9139 12.9245 46.5366 14.1954 52.9258C15.4663 59.3151 18.6033 65.184 23.2097 69.7903C27.8161 74.3967 33.685 77.5337 40.0742 78.8046C46.4635 80.0755 53.0861 79.4233 59.1047 76.9303C65.1232 74.4373 70.2673 70.2157 73.8865 64.7991C77.5058 59.3826 79.4375 53.0144 79.4375 46.5C79.4273 37.7676 75.9538 29.3958 69.779 23.221C63.6043 17.0463 55.2324 13.5728 46.5 13.5625V13.5625Z" fill="url(#paint0_linear_25_3371)" fill-opacity="0.38"/>
<path d="M21.6615 59.2488C18.5908 59.2616 15.5308 58.884 12.5553 58.125C12.3083 58.0618 12.0761 57.9505 11.8722 57.7974C11.6683 57.6442 11.4967 57.4524 11.3671 57.2328C11.2375 57.0132 11.1525 56.7702 11.117 56.5176C11.0815 56.2651 11.0962 56.0081 11.1603 55.7613C11.2191 55.5158 11.3263 55.2844 11.4756 55.0809C11.6249 54.8773 11.8134 54.7055 12.0299 54.5756C12.2464 54.4457 12.4866 54.3603 12.7365 54.3243C12.9864 54.2884 13.241 54.3027 13.4853 54.3663C18.3523 55.6214 23.4423 55.7446 28.3644 54.7265C33.2865 53.7083 37.9099 51.5759 41.8796 48.4929C45.8493 45.4099 49.0599 41.4583 51.2647 36.9415C53.4696 32.4246 54.6103 27.4626 54.599 22.4363C54.6178 19.3266 54.1738 16.2315 53.2815 13.2525C53.1325 12.7387 53.1937 12.1867 53.4517 11.718C53.7097 11.2492 54.1433 10.9022 54.6572 10.7532C55.171 10.6042 55.723 10.6654 56.1917 10.9233C56.6605 11.1813 57.0075 11.6149 57.1565 12.1288C58.1384 15.4764 58.6343 18.9477 58.629 22.4363C58.624 27.2822 57.6632 32.0795 55.8017 36.5537C53.9402 41.0278 51.2145 45.0908 47.7808 48.5102C44.347 51.9296 40.2725 54.6381 35.7906 56.4808C31.3087 58.3235 26.5074 59.2641 21.6615 59.2488V59.2488Z" fill="url(#paint1_linear_25_3371)" fill-opacity="0.38"/>
<path d="M47.8566 83.2737C47.3967 83.2784 46.9507 83.116 46.6015 82.8166C46.2523 82.5173 46.0236 82.1014 45.9579 81.6462C45.6926 80.1627 45.5629 78.6581 45.5704 77.1512C45.5806 69.354 48.6826 61.879 54.1961 56.3656C59.7095 50.8521 67.1844 47.7502 74.9816 47.7399C77.1988 47.7249 79.41 47.972 81.5691 48.4762C81.819 48.5311 82.0556 48.635 82.2651 48.7819C82.4746 48.9287 82.653 49.1156 82.7899 49.3318C82.9268 49.548 83.0195 49.7891 83.0627 50.0413C83.1059 50.2935 83.0988 50.5517 83.0416 50.8012C82.9871 51.0502 82.8831 51.2857 82.7356 51.4936C82.5882 51.7015 82.4004 51.8776 82.1834 52.0114C81.9664 52.1452 81.7247 52.234 81.4727 52.2724C81.2207 52.3108 80.9636 52.298 80.7166 52.2349C78.8349 51.81 76.9107 51.6019 74.9816 51.6149C68.2121 51.6252 61.7228 54.3189 56.9361 59.1056C52.1493 63.8924 49.4556 70.3817 49.4454 77.1512C49.4487 78.4489 49.5524 79.7444 49.7554 81.0262C49.8053 81.2787 49.8035 81.5388 49.7498 81.7905C49.6961 82.0423 49.5918 82.2806 49.4432 82.4908C49.2946 82.701 49.1048 82.8788 48.8854 83.0134C48.6659 83.148 48.4214 83.2365 48.1666 83.2737H47.8566Z" fill="url(#paint2_linear_25_3371)" fill-opacity="0.38"/>
<path d="M71.1449 73.0822C70.8908 73.0853 70.6388 73.0352 70.4053 72.9351C70.1717 72.8349 69.9616 72.6871 69.7886 72.5009L20.4986 23.2497C20.317 23.0696 20.1729 22.8553 20.0745 22.6192C19.9762 22.3831 19.9255 22.1298 19.9255 21.8741C19.9255 21.6183 19.9762 21.365 20.0745 21.1289C20.1729 20.8928 20.317 20.6785 20.4986 20.4984C20.8608 20.1434 21.3477 19.9446 21.8549 19.9446C22.362 19.9446 22.849 20.1434 23.2111 20.4984L72.5011 69.7497C72.6827 69.9298 72.8269 70.1441 72.9253 70.3802C73.0236 70.6163 73.0743 70.8695 73.0743 71.1253C73.0743 71.3811 73.0236 71.6343 72.9253 71.8704C72.8269 72.1065 72.6827 72.3208 72.5011 72.5009C72.3281 72.6871 72.1181 72.8349 71.8845 72.9351C71.6509 73.0352 71.399 73.0853 71.1449 73.0822V73.0822Z" fill="url(#paint3_linear_25_3371)" fill-opacity="0.38"/>
<defs>
<linearGradient id="paint0_linear_25_3371" x1="46.5" y1="9.6875" x2="46.5" y2="83.3125" gradientUnits="userSpaceOnUse">
<stop stop-color="#6949FF"/>
<stop offset="1" stop-color="#BDBDBD" stop-opacity="0"/>
</linearGradient>
<linearGradient id="paint1_linear_25_3371" x1="34.8636" y1="10.6733" x2="34.8636" y2="59.2491" gradientUnits="userSpaceOnUse">
<stop stop-color="#6949FF"/>
<stop offset="1" stop-color="#BDBDBD" stop-opacity="0"/>
</linearGradient>
<linearGradient id="paint2_linear_25_3371" x1="64.3303" y1="47.7393" x2="64.3303" y2="83.2738" gradientUnits="userSpaceOnUse">
<stop stop-color="#6949FF"/>
<stop offset="1" stop-color="#BDBDBD" stop-opacity="0"/>
</linearGradient>
<linearGradient id="paint3_linear_25_3371" x1="46.4999" y1="19.9446" x2="46.4999" y2="73.0823" gradientUnits="userSpaceOnUse">
<stop stop-color="#6949FF"/>
<stop offset="1" stop-color="#BDBDBD" stop-opacity="0"/>
</linearGradient>
</defs>
</svg>
