<svg width="20" height="20" viewBox="0 0 20 20" fill="none" xmlns="http://www.w3.org/2000/svg">
<g clip-path="url(#clip0_25_3713)">
<path d="M10.9055 17.823L11.5509 18.2051L10.9055 17.823ZM11.3573 17.0598L10.7118 16.6778L11.3573 17.0598ZM8.64263 17.0598L7.99722 17.4418H7.99722L8.64263 17.0598ZM9.09438 17.823L9.73979 17.441V17.441L9.09438 17.823ZM1.98379 13.2611L2.6767 12.9741H2.6767L1.98379 13.2611ZM6.49127 15.8262L6.47835 16.5761L6.49127 15.8262ZM4.23878 15.5161L3.95177 16.209H3.95177L4.23878 15.5161ZM18.0161 13.2611L18.709 13.5482V13.5482L18.0161 13.2611ZM13.5086 15.8262L13.4957 15.0763L13.5086 15.8262ZM15.7611 15.5161L16.0482 16.209L16.0482 16.209L15.7611 15.5161ZM16.3437 2.28063L15.9518 2.92011L16.3437 2.28063ZM17.7193 3.65622L18.3588 3.26434V3.26434L17.7193 3.65622ZM3.65622 2.28063L3.26434 1.64115V1.64115L3.65622 2.28063ZM2.28063 3.65622L1.64115 3.26434H1.64115L2.28063 3.65622ZM7.83562 16.0082L8.21269 15.3598L8.21269 15.3598L7.83562 16.0082ZM11.5509 18.2051L12.0027 17.4418L10.7118 16.6778L10.2601 17.441L11.5509 18.2051ZM7.99722 17.4418L8.44897 18.2051L9.73979 17.441L9.28805 16.6778L7.99722 17.4418ZM10.2601 17.441C10.1479 17.6306 9.85202 17.6306 9.73979 17.441L8.44897 18.2051C9.14201 19.3759 10.8579 19.3759 11.5509 18.2051L10.2601 17.441ZM8.74996 2.41663H11.25V0.916626H8.74996V2.41663ZM17.5833 8.74996V9.58329H19.0833V8.74996H17.5833ZM2.41663 9.58329V8.74996H0.916626V9.58329H2.41663ZM0.916626 9.58329C0.916626 10.5437 0.91622 11.3016 0.958012 11.9142C1.00026 12.5334 1.08814 13.0587 1.29088 13.5482L2.6767 12.9741C2.56228 12.6979 2.49157 12.3549 2.45453 11.8121C2.41703 11.2624 2.41663 10.5643 2.41663 9.58329H0.916626ZM6.5042 15.0763C5.45798 15.0583 4.93138 14.9912 4.52579 14.8232L3.95177 16.209C4.64669 16.4969 5.4323 16.558 6.47835 16.5761L6.5042 15.0763ZM1.29088 13.5482C1.7899 14.7529 2.74704 15.71 3.95177 16.209L4.52579 14.8232C3.68861 14.4764 3.02348 13.8113 2.6767 12.9741L1.29088 13.5482ZM17.5833 9.58329C17.5833 10.5643 17.5829 11.2624 17.5454 11.8121C17.5083 12.3549 17.4376 12.6979 17.3232 12.9741L18.709 13.5482C18.9118 13.0587 18.9997 12.5334 19.0419 11.9142C19.0837 11.3016 19.0833 10.5437 19.0833 9.58329H17.5833ZM13.5215 16.5761C14.5676 16.558 15.3532 16.4969 16.0482 16.209L15.4741 14.8232C15.0685 14.9912 14.5419 15.0583 13.4957 15.0763L13.5215 16.5761ZM17.3232 12.9741C16.9764 13.8113 16.3113 14.4764 15.4741 14.8232L16.0482 16.209C17.2529 15.71 18.21 14.7529 18.709 13.5482L17.3232 12.9741ZM11.25 2.41663C12.6284 2.41663 13.6096 2.41742 14.3731 2.49001C15.1254 2.56154 15.5885 2.69746 15.9518 2.92011L16.7356 1.64115C16.097 1.24979 15.3771 1.07871 14.515 0.996743C13.6641 0.915835 12.5994 0.916626 11.25 0.916626V2.41663ZM19.0833 8.74996C19.0833 7.40055 19.0841 6.33583 19.0032 5.48488C18.9212 4.62278 18.7501 3.90297 18.3588 3.26434L17.0798 4.04809C17.3025 4.41142 17.4384 4.87455 17.5099 5.62686C17.5825 6.39034 17.5833 7.37151 17.5833 8.74996H19.0833ZM15.9518 2.92011C16.4116 3.20183 16.7981 3.58836 17.0798 4.04809L18.3588 3.26434C17.9534 2.60278 17.3971 2.04655 16.7356 1.64115L15.9518 2.92011ZM8.74996 0.916626C7.40055 0.916626 6.33583 0.915835 5.48488 0.996743C4.62278 1.07871 3.90297 1.24979 3.26434 1.64115L4.04809 2.92011C4.41142 2.69746 4.87455 2.56154 5.62686 2.49001C6.39034 2.41742 7.37151 2.41663 8.74996 2.41663V0.916626ZM2.41663 8.74996C2.41663 7.37151 2.41742 6.39034 2.49001 5.62686C2.56154 4.87455 2.69746 4.41142 2.92011 4.04809L1.64115 3.26434C1.24979 3.90297 1.07871 4.62278 0.996743 5.48488C0.915835 6.33583 0.916626 7.40055 0.916626 8.74996H2.41663ZM3.26434 1.64115C2.60278 2.04655 2.04655 2.60278 1.64115 3.26434L2.92011 4.04809C3.20183 3.58836 3.58836 3.20183 4.04809 2.92011L3.26434 1.64115ZM9.28805 16.6778C9.12005 16.394 8.9681 16.1357 8.81936 15.9316C8.66139 15.7149 8.47484 15.5123 8.21269 15.3598L7.45855 16.6565C7.47781 16.6677 7.51957 16.695 7.60715 16.8151C7.70396 16.9479 7.81481 17.1337 7.99722 17.4418L9.28805 16.6778ZM6.47835 16.5761C6.84659 16.5824 7.07156 16.587 7.2411 16.6058C7.39674 16.623 7.44175 16.6467 7.45855 16.6565L8.21269 15.3598C7.94807 15.2059 7.67522 15.1447 7.40619 15.1149C7.15107 15.0867 6.84458 15.0821 6.5042 15.0763L6.47835 16.5761ZM12.0027 17.4418C12.1851 17.1337 12.2959 16.9479 12.3927 16.8151C12.4803 16.695 12.5221 16.6677 12.5413 16.6565L11.7872 15.3598C11.525 15.5123 11.3385 15.7149 11.1805 15.9316C11.0318 16.1357 10.8798 16.394 10.7118 16.6778L12.0027 17.4418ZM13.4957 15.0763C13.1553 15.0821 12.8488 15.0867 12.5937 15.1149C12.3247 15.1447 12.0518 15.2059 11.7872 15.3598L12.5413 16.6565C12.5581 16.6467 12.6031 16.623 12.7588 16.6058C12.9283 16.587 13.1533 16.5824 13.5215 16.5761L13.4957 15.0763Z" fill="#6868FF"/>
</g>
<defs>
<clipPath id="clip0_25_3713">
<rect width="20" height="20" fill="white"/>
</clipPath>
</defs>
</svg>
